<?xml version="1.0" standalone="no"?>
<!DOCTYPE svg PUBLIC "-//W3C//DTD SVG 20010904//EN"
 "http://www.w3.org/TR/2001/REC-SVG-20010904/DTD/svg10.dtd">
<svg version="1.0" xmlns="http://www.w3.org/2000/svg"
 width="624.000000pt" height="270.000000pt" viewBox="0 0 624.000000 270.000000"
 preserveAspectRatio="xMidYMid meet">
<metadata>
Created by potrace 1.10, written by Peter Selinger 2001-2011
</metadata>
<g transform="translate(0.000000,270.000000) scale(0.100000,-0.100000)"
fill="#000000" stroke="none">
<path d="M5087 2680 c-4 -17 -14 -20 -55 -20 -32 0 -54 -5 -62 -15 -7 -8 -23
-15 -36 -15 -12 0 -25 -4 -28 -9 -3 -5 -18 -12 -33 -16 -15 -3 -47 -20 -71
-36 -23 -16 -47 -29 -52 -29 -16 0 -236 -223 -263 -267 -61 -97 -112 -210
-122 -268 -4 -22 -12 -46 -18 -54 -8 -9 -11 -85 -11 -241 1 -195 3 -230 17
-251 10 -13 17 -42 17 -66 0 -23 5 -45 10 -48 6 -3 10 -15 10 -26 0 -10 9 -36
20 -56 11 -21 20 -43 20 -49 0 -6 7 -17 15 -24 8 -7 15 -23 15 -36 0 -13 4
-24 8 -24 5 0 16 -17 25 -37 9 -21 32 -62 52 -91 19 -30 35 -55 35 -57 0 -4
87 -132 101 -149 39 -46 49 -60 49 -65 0 -3 10 -17 23 -31 13 -14 47 -56 77
-95 30 -38 66 -81 80 -95 14 -15 59 -64 100 -111 112 -126 218 -238 257 -272
20 -18 23 -16 145 107 69 68 150 153 179 187 30 35 61 70 69 79 61 66 92 103
134 160 27 36 54 70 60 75 7 6 23 28 36 50 13 22 27 42 30 45 3 3 17 23 30 45
13 22 30 46 37 53 7 7 13 20 13 28 0 8 4 14 8 14 5 0 19 25 33 55 13 30 27 55
31 55 3 0 9 13 13 30 4 16 10 30 15 30 4 0 11 16 14 35 4 19 11 35 16 35 6 0
10 13 10 28 0 16 7 37 15 48 8 10 15 33 15 50 0 17 7 37 15 44 10 9 15 32 15
76 0 57 2 64 20 64 19 0 20 7 20 204 0 195 -1 204 -20 209 -16 4 -20 14 -20
54 0 26 -7 57 -15 67 -8 11 -15 30 -15 43 0 13 -4 23 -10 23 -5 0 -13 12 -16
27 -4 15 -13 34 -21 41 -7 7 -13 22 -13 32 0 10 -7 20 -15 24 -8 3 -15 12 -15
21 0 8 -4 15 -9 15 -5 0 -13 9 -16 21 -9 28 -168 186 -225 224 -25 16 -47 32
-50 35 -11 11 -137 69 -162 74 -16 4 -28 11 -28 16 0 6 -20 10 -44 10 -54 0
-76 8 -76 26 0 11 -34 14 -189 14 -180 0 -189 -1 -194 -20z m387 -35 c11 -8
34 -15 51 -15 17 0 40 -7 51 -15 10 -8 29 -15 41 -15 12 0 25 -4 28 -10 3 -5
33 -22 65 -37 33 -15 60 -31 60 -35 0 -4 5 -8 11 -8 29 0 239 -198 239 -225 0
-7 7 -15 15 -19 8 -3 15 -12 15 -20 0 -8 4 -16 8 -18 11 -4 82 -146 82 -163 0
-7 7 -26 15 -41 8 -16 15 -40 15 -54 1 -14 7 -36 15 -50 18 -31 22 -369 4
-387 -6 -6 -14 -35 -19 -64 -8 -57 -23 -105 -46 -152 -8 -16 -14 -33 -14 -39
0 -21 -100 -231 -112 -236 -5 -2 -8 -8 -8 -14 0 -10 -68 -129 -80 -138 -3 -3
-17 -23 -30 -45 -13 -22 -30 -46 -38 -54 -7 -8 -21 -26 -30 -40 -19 -29 -41
-57 -89 -110 -18 -20 -33 -39 -33 -42 0 -7 -13 -22 -154 -174 -56 -60 -122
-132 -147 -160 -24 -27 -55 -59 -69 -72 -25 -23 -50 -30 -50 -15 0 5 -39 49
-87 98 -107 110 -188 198 -226 244 -16 19 -49 58 -74 87 -42 49 -160 203 -193
252 -8 13 -22 31 -31 41 -8 10 -24 35 -34 54 -11 20 -23 36 -27 36 -5 0 -8 6
-8 14 0 8 -6 21 -13 28 -7 7 -22 32 -34 55 -12 23 -26 50 -32 60 -23 41 -81
171 -81 180 0 6 -7 24 -15 39 -8 16 -15 40 -15 54 -1 14 -7 36 -15 50 -21 37
-21 406 0 457 8 19 15 45 15 57 0 11 7 34 15 50 8 15 15 33 15 38 0 19 44 105
88 173 80 124 271 292 362 320 13 4 30 14 38 21 7 8 19 14 27 14 7 0 26 7 41
15 16 8 40 15 54 15 14 0 36 7 50 14 37 21 357 21 384 1z"/>
<path d="M5095 2520 c-206 -55 -337 -144 -486 -330 -34 -43 -63 -89 -57 -91 2
0 80 -2 173 -3 131 -2 179 -7 209 -19 50 -22 85 -22 92 1 7 26 64 140 100 202
55 94 111 138 161 125 38 -9 39 -46 0 -106 -85 -135 -141 -278 -176 -454 -25
-122 -31 -200 -14 -200 6 0 39 24 72 53 71 63 107 92 115 92 3 0 24 13 48 29
67 45 205 115 293 148 125 48 192 64 300 71 120 8 125 16 68 100 -181 270
-417 403 -713 401 -78 0 -137 -7 -185 -19z m455 -141 c41 -18 98 -47 126 -65
61 -41 147 -130 141 -147 -7 -22 -139 -79 -167 -72 -14 3 -38 9 -53 12 -16 3
-39 21 -54 40 -15 19 -47 51 -72 69 -50 38 -91 102 -91 141 0 22 2 24 15 13
13 -10 15 -9 15 8 0 19 10 25 55 31 6 0 44 -13 85 -30z m-513 -25 c4 -26 -46
-113 -78 -137 -23 -16 -36 -18 -93 -12 -52 6 -66 11 -66 24 0 18 62 81 80 81
6 0 24 10 41 22 31 24 87 47 104 43 6 -1 11 -10 12 -21z m403 -213 c61 -44 63
-119 4 -170 -27 -25 -44 -31 -78 -31 -38 0 -48 5 -76 37 -28 32 -32 41 -27 80
10 94 103 138 177 84z"/>
<path d="M4693 1934 c-3 -10 7 -29 30 -52 19 -20 60 -63 90 -94 75 -79 88 -77
111 16 21 81 17 106 -13 106 -11 0 -57 9 -103 20 -100 24 -107 24 -115 4z"/>
<path d="M4484 1919 c-4 -6 -9 -63 -12 -125 -7 -173 24 -328 90 -444 4 -8 11
-22 15 -30 9 -22 139 -194 157 -209 22 -19 36 -5 36 38 0 58 38 259 66 350 23
75 19 92 -33 125 -68 44 -213 186 -253 250 -35 54 -52 67 -66 45z m197 -302
c66 -60 71 -74 63 -167 -7 -90 -19 -107 -61 -93 -39 13 -94 123 -107 212 -7
49 12 91 42 91 9 -1 38 -20 63 -43z"/>
<path d="M6042 1867 c-21 -36 -43 -64 -106 -134 -42 -47 -176 -153 -193 -153
-12 0 -53 61 -53 78 0 6 37 39 83 73 120 90 142 119 89 119 -36 0 -115 -27
-205 -70 -59 -28 -67 -34 -61 -53 4 -12 10 -24 14 -27 14 -10 130 -229 160
-305 27 -65 53 -157 57 -203 9 -86 25 -81 107 38 121 174 172 350 164 565 -2
82 -6 100 -19 103 -10 2 -24 -11 -37 -31z m-62 -287 c0 -58 -30 -144 -65 -182
-13 -16 -26 -28 -29 -28 -8 0 -51 74 -63 109 -11 33 -10 35 27 70 54 52 111
91 121 85 5 -3 9 -27 9 -54z"/>
<path d="M5409 1620 c-13 -17 -50 -49 -82 -73 -32 -23 -56 -48 -55 -56 3 -13
143 -119 160 -120 3 -1 40 -21 81 -45 42 -25 81 -46 89 -47 34 -4 40 1 33 31
-8 38 -71 184 -99 230 -12 19 -30 52 -41 73 -24 46 -54 49 -86 7z"/>
<path d="M5110 1313 c-58 -95 -134 -201 -176 -246 -19 -21 -34 -46 -32 -55 3
-18 64 -43 178 -73 56 -15 109 -20 206 -21 143 0 219 15 357 74 121 51 126 66
30 91 -70 18 -238 95 -288 132 -16 12 -43 29 -60 38 -16 8 -58 40 -92 71 -33
31 -66 56 -72 56 -5 0 -29 -30 -51 -67z m157 -93 c37 -28 77 -59 88 -69 11
-10 53 -36 93 -56 74 -39 90 -61 50 -69 -106 -22 -310 -32 -362 -17 -110 32
-115 41 -61 120 19 28 35 53 35 57 0 8 73 83 82 84 4 0 38 -23 75 -50z"/>
<path d="M4158 2273 l-76 -4 -75 -87 c-42 -48 -86 -99 -99 -113 -13 -14 -50
-56 -82 -93 -57 -64 -62 -67 -100 -64 l-41 3 -3 -77 -3 -78 46 0 c49 0 45 3
135 -101 30 -35 78 -88 105 -119 28 -30 66 -74 85 -98 l34 -42 98 0 c68 0 98
4 98 12 0 6 -28 39 -62 72 -97 95 -328 343 -328 353 0 9 167 188 303 326 84
86 102 120 60 115 -10 -1 -52 -4 -95 -5z"/>
<path d="M0 2189 l0 -82 145 6 c85 3 147 2 150 -4 5 -7 5 -307 1 -644 l-1 -60
73 -3 73 -3 -1 348 c-1 191 -1 353 -1 360 1 9 37 11 151 6 87 -4 150 -2 151 3
0 5 1 41 2 79 l2 70 -372 3 -373 2 0 -81z"/>
<path d="M870 2250 c-11 -11 -20 -28 -20 -37 0 -10 -1 -196 -2 -413 l-3 -395
69 0 69 0 1 354 1 354 237 1 c218 1 238 0 245 -17 4 -10 6 -56 2 -103 -5 -79
-8 -87 -37 -117 l-33 -32 -177 0 -177 0 0 -75 0 -75 50 -5 c49 -5 54 -9 195
-147 l145 -142 103 -1 c119 0 127 9 60 62 -24 18 -69 57 -100 87 -32 29 -76
67 -98 83 -52 39 -54 68 -5 68 78 0 159 65 193 155 18 46 22 78 22 166 0 129
-16 171 -82 219 l-41 30 -299 0 c-285 0 -299 -1 -318 -20z"/>
<path d="M2003 2250 c-137 -49 -219 -146 -257 -305 -14 -57 -16 -113 -14 -305
l3 -235 70 0 70 0 0 105 0 105 245 0 245 0 -4 -108 -3 -108 73 3 72 3 -1 409
c-2 407 -2 410 -24 433 -21 23 -24 23 -222 22 -169 0 -209 -3 -253 -19z m358
-144 c3 -56 0 -328 -4 -332 -8 -8 -465 -6 -479 2 -17 11 -2 150 23 201 28 57
88 108 150 124 63 18 309 22 310 5z"/>
<path d="M2765 2253 c-37 -19 -54 -37 -85 -88 -25 -39 -25 -45 -28 -285 -4
-301 -1 -337 41 -392 61 -80 61 -80 378 -82 l280 -3 -3 81 -3 81 -40 -1 c-22
-1 -139 -2 -259 -3 -206 -2 -220 -1 -239 17 -18 19 -20 35 -21 258 -1 226 0
240 19 260 20 21 24 21 270 15 138 -4 256 -5 263 -3 8 3 12 29 12 83 l0 79
-277 0 c-235 -1 -283 -3 -308 -17z"/>
<path d="M3480 2265 c-1 -3 -1 -197 -1 -432 l-1 -428 70 -3 70 -3 0 436 0 435
-69 0 c-38 0 -69 -2 -69 -5z"/>
<path d="M2165 1210 c-11 -17 -7 -402 4 -413 5 -5 21 -7 37 -5 l29 3 0 210 0
210 -32 3 c-17 2 -34 -2 -38 -8z"/>
<path d="M884 1186 c-3 -8 -4 -25 -2 -38 2 -19 9 -23 38 -23 33 0 35 2 35 35
0 32 -3 35 -33 38 -21 2 -34 -2 -38 -12z"/>
<path d="M1394 1186 c-3 -8 -4 -25 -2 -38 2 -19 9 -23 38 -23 33 0 35 2 35 35
0 32 -3 35 -33 38 -21 2 -34 -2 -38 -12z"/>
<path d="M456 1152 c-10 -16 -8 -344 2 -354 6 -6 60 -9 134 -7 105 3 128 7
158 26 45 28 69 70 77 130 11 100 -29 168 -116 198 -48 16 -246 21 -255 7z
m261 -80 c49 -31 54 -142 9 -187 -25 -25 -86 -39 -151 -33 l-40 3 -3 109 c-1
61 0 116 2 123 7 17 152 6 183 -15z"/>
<path d="M1591 1141 c-6 -11 -11 -27 -11 -36 0 -9 -13 -21 -30 -26 -37 -14
-38 -34 -2 -51 27 -13 27 -15 27 -105 0 -99 12 -125 61 -137 39 -10 101 11
107 36 3 12 4 25 1 30 -7 11 -42 10 -49 -2 -3 -5 -15 -10 -25 -10 -25 0 -32
27 -28 115 l3 70 41 -3 c45 -3 71 16 60 44 -5 13 -15 15 -44 11 -49 -8 -61 1
-59 43 2 29 -2 36 -20 38 -14 2 -26 -4 -32 -17z"/>
<path d="M1122 1080 c-18 -4 -42 -16 -54 -26 -66 -60 -62 -195 7 -243 33 -22
75 -25 160 -10 17 4 20 -1 17 -31 -1 -19 -10 -41 -20 -48 -25 -20 -134 -11
-157 11 -19 20 -34 18 -48 -5 -27 -42 34 -79 134 -80 60 0 73 3 105 27 19 15
39 38 44 50 11 28 15 333 5 343 -3 4 -30 7 -58 8 -29 0 -63 3 -77 6 -14 4 -40
3 -58 -2z m107 -69 c20 -16 24 -27 24 -76 0 -49 -4 -62 -23 -77 -24 -20 -80
-24 -110 -8 -44 23 -45 116 -3 162 21 24 81 23 112 -1z"/>
<path d="M1875 1078 c-59 -8 -85 -25 -85 -56 0 -11 10 -13 43 -8 127 20 135
19 162 -8 32 -32 33 -56 1 -56 -14 0 -28 5 -31 10 -10 16 -87 11 -132 -10 -95
-43 -49 -167 60 -163 43 2 177 10 189 12 3 1 4 45 1 99 -6 95 -17 137 -46 160
-23 19 -97 28 -162 20z m127 -175 c10 -9 18 -20 18 -24 0 -16 -60 -39 -103
-39 -45 0 -67 13 -67 40 0 28 23 40 79 40 37 0 60 -5 73 -17z"/>
<path d="M2585 1079 c-16 -5 -45 -8 -63 -5 -59 9 -63 3 -56 -88 3 -44 1 -101
-4 -126 -13 -54 -2 -72 42 -68 l31 3 0 98 c0 92 2 100 24 118 28 23 60 24 87
5 17 -13 19 -27 19 -118 l0 -103 31 -3 c44 -4 51 12 45 96 -9 102 11 141 70
142 48 0 61 -28 58 -127 -3 -98 2 -113 35 -113 37 0 41 14 36 122 -4 82 -9
108 -25 130 -36 48 -129 55 -171 14 -19 -20 -43 -21 -50 -2 -3 8 -16 17 -29
20 -13 3 -29 8 -37 10 -7 2 -26 0 -43 -5z"/>
<path d="M3094 1080 c-65 -9 -74 -15 -74 -45 0 -33 13 -38 56 -20 44 18 113
19 136 1 10 -7 19 -24 20 -37 3 -26 1 -27 -80 -13 -55 9 -124 -16 -141 -52
-15 -33 -14 -49 4 -83 20 -39 93 -58 156 -41 24 7 60 9 80 6 24 -4 40 -1 46 7
6 7 7 53 4 114 -8 122 -23 145 -103 162 -27 6 -50 10 -51 10 -1 -1 -25 -5 -53
-9z m130 -176 c21 -21 20 -30 -6 -48 -32 -23 -120 -21 -141 2 -15 16 -15 20
-1 40 13 18 25 22 74 22 40 0 64 -5 74 -16z"/>
<path d="M3516 1083 c-4 -4 -35 -7 -69 -8 l-62 0 -5 -195 c-3 -107 -3 -201 -1
-208 2 -8 16 -12 35 -10 l31 3 -2 68 c-1 74 4 79 63 56 46 -17 119 6 151 48
50 65 31 187 -36 225 -31 19 -95 31 -105 21z m74 -78 c35 -37 34 -119 -1 -146
-13 -10 -40 -19 -61 -19 -29 0 -42 7 -63 32 -23 27 -26 39 -22 72 11 79 97
114 147 61z"/>
<path d="M908 1073 c-15 -4 -17 -22 -20 -135 -2 -71 0 -134 3 -140 3 -5 19 -8
35 -6 l29 3 0 133 c1 140 -4 155 -47 145z"/>
<path d="M1417 1072 c-16 -3 -17 -16 -15 -140 l3 -137 30 0 30 0 3 132 c2 118
1 133 -15 141 -10 5 -26 7 -36 4z"/>
<path d="M4455 646 c-112 -115 -312 -224 -487 -265 -116 -27 -138 -31 -223
-42 -157 -19 -612 -1 -725 30 -19 5 -71 14 -115 20 -97 13 -195 30 -215 39
-15 6 -99 25 -180 42 -25 5 -81 18 -125 30 -44 12 -100 26 -125 31 -24 5 -49
14 -54 19 -6 6 -24 10 -41 10 -17 0 -40 7 -51 15 -10 8 -31 15 -45 15 -15 0
-46 7 -69 15 -23 8 -52 15 -64 15 -11 0 -34 7 -50 15 -15 8 -43 15 -60 15 -18
0 -37 5 -44 12 -14 14 -27 5 -17 -12 9 -14 100 -60 121 -60 9 0 28 -6 42 -14
27 -14 81 -29 162 -47 24 -5 49 -14 54 -19 6 -6 21 -10 34 -10 13 0 38 -6 55
-14 18 -7 57 -19 87 -25 121 -26 143 -31 154 -40 6 -5 27 -11 46 -14 19 -2 78
-14 130 -26 234 -54 252 -58 535 -97 149 -21 488 -29 585 -14 333 52 531 138
712 309 71 66 85 101 51 119 -15 8 -30 -3 -78 -52z"/>
<path d="M4668 502 c-31 -44 -269 -191 -368 -227 -25 -9 -61 -23 -80 -30 -19
-7 -44 -17 -55 -21 -11 -4 -29 -9 -40 -10 -11 -1 -47 -10 -80 -19 -61 -16
-150 -29 -306 -44 -115 -12 -471 13 -549 38 -19 6 -50 11 -68 11 -18 0 -46 7
-63 15 -16 9 -33 14 -37 11 -4 -2 -37 2 -72 10 -36 9 -83 19 -105 23 -22 4
-50 13 -62 19 -12 7 -30 12 -40 12 -16 0 -55 11 -225 62 -67 20 -117 20 -66 0
14 -6 29 -16 33 -21 3 -6 17 -11 29 -11 13 0 29 -7 36 -15 7 -8 27 -15 44 -15
17 -1 42 -7 56 -15 14 -8 39 -14 56 -15 17 0 37 -7 44 -15 7 -8 25 -15 41 -15
16 0 37 -4 47 -10 20 -11 133 -38 210 -50 29 -5 58 -13 65 -18 7 -5 56 -12
110 -15 53 -4 106 -11 118 -17 30 -17 516 -18 604 -2 39 7 97 17 130 23 53 9
175 46 230 69 149 64 272 134 360 208 45 38 56 59 43 85 -11 22 -24 22 -40 -1z"/>
<path d="M4828 322 c-38 -54 -350 -210 -423 -212 -16 0 -39 -7 -49 -15 -11 -8
-37 -15 -57 -15 -21 0 -40 -4 -43 -9 -12 -18 -231 -45 -371 -44 -149 0 -356
18 -384 32 -24 13 -181 18 -181 6 0 -5 19 -11 42 -13 24 -1 52 -7 63 -12 63
-30 658 -46 810 -22 44 7 92 13 107 12 15 0 29 4 33 10 3 5 24 10 45 10 21 0
40 3 42 8 2 4 37 20 78 36 97 36 124 49 190 91 30 19 69 41 86 50 45 23 88 71
81 89 -9 22 -53 20 -69 -2z"/>
</g>
</svg>
