<?xml version="1.0" encoding="UTF-8"?>
<svg xmlns="http://www.w3.org/2000/svg" xmlns:xlink="http://www.w3.org/1999/xlink" width="91px" height="23px" viewBox="0 0 53 23" version="1.1">
<g id="surface1">
<path style=" stroke:none;fill-rule:nonzero;fill:rgb(0%,0%,0%);fill-opacity:1;" d="M 44.304688 0.140625 C 44.378906 0.160156 44.496094 0.160156 44.554688 0.140625 C 44.605469 0.117188 44.546875 0.101562 44.402344 0.101562 C 44.269531 0.101562 44.21875 0.117188 44.304688 0.140625 Z M 44.304688 0.140625 "/>
<path style=" stroke:none;fill-rule:nonzero;fill:rgb(0%,0%,0%);fill-opacity:1;" d="M 45.304688 0.140625 C 45.378906 0.160156 45.496094 0.160156 45.554688 0.140625 C 45.605469 0.117188 45.546875 0.101562 45.40625 0.101562 C 45.273438 0.101562 45.222656 0.117188 45.304688 0.140625 Z M 45.304688 0.140625 "/>
<path style=" stroke:none;fill-rule:nonzero;fill:rgb(0%,0%,0%);fill-opacity:1;" d="M 43.59375 0.226562 C 43.652344 0.25 43.726562 0.242188 43.75 0.21875 C 43.785156 0.191406 43.734375 0.167969 43.644531 0.175781 C 43.550781 0.175781 43.527344 0.199219 43.59375 0.226562 Z M 43.59375 0.226562 "/>
<path style=" stroke:none;fill-rule:nonzero;fill:rgb(0%,0%,0%);fill-opacity:1;" d="M 41.335938 0.929688 C 41.160156 1.023438 41.019531 1.113281 41.019531 1.132812 C 41.019531 1.171875 41.679688 0.863281 41.761719 0.789062 C 41.863281 0.695312 41.613281 0.78125 41.335938 0.929688 Z M 41.335938 0.929688 "/>
<path style=" stroke:none;fill-rule:nonzero;fill:rgb(0%,0%,0%);fill-opacity:1;" d="M 48.789062 1.125 C 48.789062 1.148438 48.863281 1.207031 48.957031 1.257812 C 49.046875 1.308594 49.125 1.324219 49.125 1.308594 C 49.125 1.28125 49.046875 1.222656 48.957031 1.171875 C 48.863281 1.125 48.789062 1.105469 48.789062 1.125 Z M 48.789062 1.125 "/>
<path style=" stroke:none;fill-rule:nonzero;fill:rgb(0%,0%,0%);fill-opacity:1;" d="M 43.566406 1.398438 C 42.75 1.574219 41.820312 1.945312 41.1875 2.363281 C 40.511719 2.800781 39.492188 3.839844 39.082031 4.5 L 38.78125 5.003906 L 40.167969 5.054688 C 41.070312 5.078125 41.738281 5.148438 42.0625 5.238281 C 42.472656 5.347656 42.574219 5.355469 42.632812 5.265625 C 42.664062 5.207031 42.925781 4.734375 43.199219 4.234375 C 43.808594 3.136719 44.042969 2.808594 44.394531 2.589844 C 44.710938 2.398438 44.796875 2.390625 45.03125 2.582031 L 45.214844 2.734375 L 44.664062 3.832031 C 43.835938 5.480469 43.46875 6.695312 43.316406 8.289062 C 43.25 8.984375 43.234375 8.976562 43.859375 8.464844 C 45.898438 6.796875 48.15625 5.785156 50.445312 5.515625 C 50.910156 5.457031 51.296875 5.390625 51.296875 5.363281 C 51.296875 5.265625 50.695312 4.308594 50.359375 3.871094 C 48.832031 1.886719 46.039062 0.863281 43.566406 1.398438 Z M 46.332031 4.8125 C 46.566406 5.046875 46.617188 5.164062 46.617188 5.449219 C 46.617188 5.933594 46.199219 6.371094 45.738281 6.371094 C 45.136719 6.371094 44.78125 5.992188 44.78125 5.382812 C 44.789062 4.871094 45.15625 4.535156 45.730469 4.527344 C 45.980469 4.527344 46.109375 4.585938 46.332031 4.8125 Z M 46.332031 4.8125 "/>
<path style=" stroke:none;fill-rule:nonzero;fill:rgb(0%,0%,0%);fill-opacity:1;" d="M 49.457031 1.542969 C 49.457031 1.558594 49.523438 1.625 49.609375 1.683594 C 49.734375 1.792969 49.742188 1.785156 49.632812 1.652344 C 49.523438 1.515625 49.457031 1.476562 49.457031 1.542969 Z M 49.457031 1.542969 "/>
<path style=" stroke:none;fill-rule:nonzero;fill:rgb(0%,0%,0%);fill-opacity:1;" d="M 39.492188 2.28125 L 38.789062 2.976562 L 39.425781 2.398438 C 39.773438 2.070312 40.117188 1.761719 40.183594 1.703125 C 40.25 1.644531 40.277344 1.59375 40.25 1.59375 C 40.21875 1.59375 39.875 1.902344 39.492188 2.28125 Z M 39.492188 2.28125 "/>
<path style=" stroke:none;fill-rule:nonzero;fill:rgb(0%,0%,0%);fill-opacity:1;" d="M 50.144531 2.113281 C 50.351562 2.3125 50.6875 2.640625 50.878906 2.851562 L 51.230469 3.226562 L 50.902344 2.824219 C 50.726562 2.605469 50.402344 2.273438 50.167969 2.085938 L 49.75 1.742188 Z M 50.144531 2.113281 "/>
<path style=" stroke:none;fill-rule:nonzero;fill:rgb(0%,0%,0%);fill-opacity:1;" d="M 38.589844 3.242188 C 38.480469 3.378906 38.488281 3.386719 38.621094 3.277344 C 38.753906 3.167969 38.796875 3.101562 38.730469 3.101562 C 38.714844 3.101562 38.648438 3.167969 38.589844 3.242188 Z M 38.589844 3.242188 "/>
<path style=" stroke:none;fill-rule:nonzero;fill:rgb(0%,0%,0%);fill-opacity:1;" d="M 51.421875 3.578125 C 51.546875 3.78125 51.671875 3.941406 51.6875 3.941406 C 51.746094 3.941406 51.429688 3.429688 51.304688 3.328125 C 51.238281 3.269531 51.289062 3.386719 51.421875 3.578125 Z M 51.421875 3.578125 "/>
<path style=" stroke:none;fill-rule:nonzero;fill:rgb(0%,0%,0%);fill-opacity:1;" d="M 0 4.273438 L 0 4.945312 L 2.589844 4.945312 L 2.589844 10.898438 L 3.757812 10.898438 L 3.757812 4.945312 L 6.347656 4.945312 L 6.347656 3.605469 L 0 3.605469 Z M 0 4.273438 "/>
<path style=" stroke:none;fill-rule:nonzero;fill:rgb(0%,0%,0%);fill-opacity:1;" d="M 7.453125 3.796875 C 7.269531 3.988281 7.269531 4 7.269531 7.441406 L 7.269531 10.898438 L 8.4375 10.898438 L 8.4375 4.945312 L 10.46875 4.960938 L 12.488281 4.988281 L 12.515625 5.75 C 12.53125 6.429688 12.515625 6.53125 12.355469 6.738281 C 12.039062 7.140625 11.746094 7.207031 10.277344 7.207031 L 8.9375 7.207031 L 8.9375 8.550781 L 9.757812 8.550781 L 10.96875 9.722656 L 12.179688 10.898438 L 13.992188 10.898438 L 12.824219 9.722656 C 12.070312 8.96875 11.703125 8.542969 11.789062 8.523438 C 11.855469 8.5 12.054688 8.441406 12.246094 8.390625 C 12.730469 8.265625 13.300781 7.726562 13.535156 7.191406 C 13.699219 6.816406 13.734375 6.605469 13.734375 5.742188 C 13.742188 4.851562 13.71875 4.695312 13.558594 4.382812 C 13.449219 4.191406 13.25 3.949219 13.101562 3.839844 C 12.824219 3.644531 12.800781 3.644531 10.234375 3.621094 L 7.636719 3.597656 Z M 7.453125 3.796875 "/>
<path style=" stroke:none;fill-rule:nonzero;fill:rgb(0%,0%,0%);fill-opacity:1;" d="M 17.203125 3.722656 C 16.375 3.949219 15.582031 4.617188 15.203125 5.421875 C 14.863281 6.144531 14.789062 6.789062 14.789062 8.902344 L 14.789062 10.898438 L 15.957031 10.898438 L 15.957031 9.136719 L 20.132812 9.136719 L 20.132812 10.898438 L 21.304688 10.898438 L 21.304688 4.015625 L 21.09375 3.8125 C 20.894531 3.605469 20.886719 3.605469 19.238281 3.613281 C 18.210938 3.613281 17.445312 3.65625 17.203125 3.722656 Z M 20.132812 6.371094 L 20.132812 7.796875 L 18.070312 7.777344 L 16 7.753906 L 16.015625 7.132812 C 16.046875 6.09375 16.5 5.390625 17.34375 5.078125 C 17.570312 4.996094 18.054688 4.953125 18.90625 4.953125 L 20.132812 4.945312 Z M 20.132812 6.371094 "/>
<path style=" stroke:none;fill-rule:nonzero;fill:rgb(0%,0%,0%);fill-opacity:1;" d="M 23.601562 3.722656 C 23.265625 3.863281 22.859375 4.351562 22.714844 4.753906 C 22.625 4.988281 22.597656 5.640625 22.597656 7.335938 C 22.597656 9.546875 22.605469 9.605469 22.800781 10 C 22.925781 10.25 23.125 10.484375 23.332031 10.628906 L 23.667969 10.855469 L 26.082031 10.878906 L 28.488281 10.90625 L 28.488281 9.554688 L 26.242188 9.554688 C 24.253906 9.554688 23.984375 9.539062 23.886719 9.414062 C 23.792969 9.304688 23.769531 8.84375 23.769531 7.25 C 23.769531 5.65625 23.792969 5.195312 23.886719 5.085938 C 23.984375 4.960938 24.253906 4.945312 26.242188 4.945312 L 28.488281 4.945312 L 28.488281 3.605469 L 26.175781 3.605469 C 24.445312 3.613281 23.785156 3.636719 23.601562 3.722656 Z M 23.601562 3.722656 "/>
<path style=" stroke:none;fill-rule:nonzero;fill:rgb(0%,0%,0%);fill-opacity:1;" d="M 29.65625 7.25 L 29.65625 10.898438 L 30.828125 10.898438 L 30.828125 3.605469 L 29.65625 3.605469 Z M 29.65625 7.25 "/>
<path style=" stroke:none;fill-rule:nonzero;fill:rgb(0%,0%,0%);fill-opacity:1;" d="M 33.382812 5.113281 L 32.054688 6.621094 L 31.238281 6.621094 L 31.261719 7.265625 L 31.285156 7.921875 L 31.703125 7.945312 L 32.121094 7.972656 L 33.417969 9.429688 L 34.710938 10.898438 L 36.433594 10.898438 L 34.996094 9.320312 C 34.203125 8.457031 33.449219 7.636719 33.324219 7.5 L 33.089844 7.25 L 33.984375 6.277344 C 34.476562 5.75 35.230469 4.929688 35.664062 4.460938 L 36.441406 3.605469 L 34.710938 3.605469 Z M 33.382812 5.113281 "/>
<path style=" stroke:none;fill-rule:nonzero;fill:rgb(0%,0%,0%);fill-opacity:1;" d="M 38.011719 4.105469 C 37.960938 4.199219 37.945312 4.273438 37.960938 4.273438 C 37.988281 4.273438 38.046875 4.199219 38.097656 4.105469 C 38.144531 4.015625 38.164062 3.941406 38.144531 3.941406 C 38.121094 3.941406 38.0625 4.015625 38.011719 4.105469 Z M 38.011719 4.105469 "/>
<path style=" stroke:none;fill-rule:nonzero;fill:rgb(0%,0%,0%);fill-opacity:1;" d="M 51.796875 4.191406 C 51.847656 4.28125 51.90625 4.359375 51.929688 4.359375 C 51.949219 4.359375 51.929688 4.28125 51.878906 4.191406 C 51.832031 4.097656 51.773438 4.023438 51.746094 4.023438 C 51.730469 4.023438 51.746094 4.097656 51.796875 4.191406 Z M 51.796875 4.191406 "/>
<path style=" stroke:none;fill-rule:nonzero;fill:rgb(0%,0%,0%);fill-opacity:1;" d="M 52.640625 6.421875 C 52.640625 6.511719 52.664062 6.539062 52.691406 6.472656 C 52.714844 6.414062 52.707031 6.335938 52.683594 6.3125 C 52.65625 6.277344 52.632812 6.328125 52.640625 6.421875 Z M 52.640625 6.421875 "/>
<path style=" stroke:none;fill-rule:nonzero;fill:rgb(0%,0%,0%);fill-opacity:1;" d="M 37.101562 6.589844 C 37.101562 6.679688 37.125 6.707031 37.152344 6.636719 C 37.175781 6.578125 37.167969 6.503906 37.144531 6.480469 C 37.117188 6.445312 37.09375 6.496094 37.101562 6.589844 Z M 37.101562 6.589844 "/>
<path style=" stroke:none;fill-rule:nonzero;fill:rgb(0%,0%,0%);fill-opacity:1;" d="M 40.160156 6.714844 C 40.425781 7.167969 40.519531 7.191406 40.519531 6.796875 C 40.519531 6.472656 40.511719 6.453125 40.257812 6.453125 L 40.007812 6.453125 Z M 40.160156 6.714844 "/>
<path style=" stroke:none;fill-rule:nonzero;fill:rgb(0%,0%,0%);fill-opacity:1;" d="M 38.222656 6.628906 C 38.1875 6.671875 38.121094 7.082031 38.070312 7.535156 C 37.960938 8.550781 38.121094 9.691406 38.511719 10.703125 C 39 11.976562 39.007812 11.953125 39.015625 9.570312 L 39.015625 7.453125 L 38.648438 6.992188 C 38.429688 6.730469 38.253906 6.570312 38.222656 6.628906 Z M 38.222656 6.628906 "/>
<path style=" stroke:none;fill-rule:nonzero;fill:rgb(0%,0%,0%);fill-opacity:1;" d="M 37.027344 7.125 C 37.027344 7.242188 37.042969 7.285156 37.066406 7.226562 C 37.085938 7.175781 37.085938 7.074219 37.066406 7.015625 C 37.042969 6.964844 37.027344 7.007812 37.027344 7.125 Z M 37.027344 7.125 "/>
<path style=" stroke:none;fill-rule:nonzero;fill:rgb(0%,0%,0%);fill-opacity:1;" d="M 52.824219 8.089844 C 52.824219 8.457031 52.839844 8.601562 52.859375 8.398438 C 52.875 8.207031 52.875 7.902344 52.859375 7.726562 C 52.839844 7.558594 52.824219 7.71875 52.824219 8.089844 Z M 52.824219 8.089844 "/>
<path style=" stroke:none;fill-rule:nonzero;fill:rgb(0%,0%,0%);fill-opacity:1;" d="M 52.722656 9.4375 C 52.722656 9.53125 52.75 9.554688 52.773438 9.488281 C 52.800781 9.429688 52.792969 9.355469 52.765625 9.328125 C 52.742188 9.296875 52.714844 9.347656 52.722656 9.4375 Z M 52.722656 9.4375 "/>
<path style=" stroke:none;fill-rule:nonzero;fill:rgb(0%,0%,0%);fill-opacity:1;" d="M 37.019531 9.691406 C 37.019531 9.78125 37.042969 9.808594 37.066406 9.738281 C 37.09375 9.679688 37.085938 9.605469 37.058594 9.582031 C 37.035156 9.546875 37.011719 9.597656 37.019531 9.691406 Z M 37.019531 9.691406 "/>
<path style=" stroke:none;fill-rule:nonzero;fill:rgb(0%,0%,0%);fill-opacity:1;" d="M 37.84375 12.445312 C 37.84375 12.488281 37.886719 12.589844 37.929688 12.65625 C 37.96875 12.722656 38.011719 12.742188 38.011719 12.699219 C 38.011719 12.648438 37.96875 12.554688 37.929688 12.488281 C 37.886719 12.421875 37.84375 12.398438 37.84375 12.445312 Z M 37.84375 12.445312 "/>
<path style=" stroke:none;fill-rule:nonzero;fill:rgb(0%,0%,0%);fill-opacity:1;" d="M 18.671875 12.65625 L 18.421875 12.699219 L 18.421875 16.09375 L 19.007812 16.09375 L 18.980469 14.902344 C 18.972656 14.242188 18.957031 13.460938 18.9375 13.160156 L 18.921875 12.613281 Z M 18.671875 12.65625 "/>
<path style=" stroke:none;fill-rule:nonzero;fill:rgb(0%,0%,0%);fill-opacity:1;" d="M 7.636719 12.859375 C 7.542969 13.09375 7.644531 13.285156 7.84375 13.285156 C 8.113281 13.285156 8.253906 13.050781 8.113281 12.875 C 7.96875 12.707031 7.695312 12.699219 7.636719 12.859375 Z M 7.636719 12.859375 "/>
<path style=" stroke:none;fill-rule:nonzero;fill:rgb(0%,0%,0%);fill-opacity:1;" d="M 11.980469 12.859375 C 11.886719 13.09375 11.988281 13.285156 12.1875 13.285156 C 12.457031 13.285156 12.597656 13.050781 12.457031 12.875 C 12.3125 12.707031 12.039062 12.699219 11.980469 12.859375 Z M 11.980469 12.859375 "/>
<path style=" stroke:none;fill-rule:nonzero;fill:rgb(0%,0%,0%);fill-opacity:1;" d="M 3.96875 14.585938 L 3.96875 16.109375 L 5.113281 16.078125 C 6.347656 16.050781 6.5 16 6.882812 15.472656 C 7.125 15.144531 7.132812 14.164062 6.890625 13.753906 C 6.609375 13.277344 6.242188 13.144531 5.03125 13.09375 L 3.96875 13.050781 Z M 6.242188 13.78125 C 6.457031 13.964844 6.476562 14.03125 6.476562 14.574219 C 6.476562 15.113281 6.449219 15.1875 6.242188 15.398438 C 6.03125 15.605469 5.949219 15.632812 5.304688 15.664062 L 4.59375 15.691406 L 4.59375 13.578125 L 5.296875 13.578125 C 5.921875 13.578125 6.03125 13.605469 6.242188 13.78125 Z M 6.242188 13.78125 "/>
<path style=" stroke:none;fill-rule:nonzero;fill:rgb(0%,0%,0%);fill-opacity:1;" d="M 13.617188 13.277344 C 13.617188 13.519531 13.417969 13.746094 13.191406 13.746094 C 13.074219 13.746094 13.03125 13.804688 13.03125 13.957031 C 13.03125 14.125 13.074219 14.164062 13.234375 14.164062 C 13.433594 14.164062 13.433594 14.183594 13.46875 15.011719 C 13.492188 15.792969 13.507812 15.867188 13.699219 16.027344 C 13.867188 16.160156 13.984375 16.183594 14.277344 16.144531 C 14.71875 16.085938 14.871094 15.96875 14.871094 15.707031 C 14.871094 15.507812 14.863281 15.507812 14.671875 15.640625 C 14.554688 15.707031 14.378906 15.757812 14.269531 15.742188 C 14.085938 15.714844 14.078125 15.675781 14.050781 14.945312 L 14.027344 14.175781 L 14.429688 14.148438 C 14.769531 14.125 14.828125 14.097656 14.855469 13.929688 C 14.878906 13.761719 14.855469 13.746094 14.460938 13.746094 L 14.042969 13.746094 L 14.019531 13.429688 C 14 13.175781 13.960938 13.109375 13.808594 13.09375 C 13.652344 13.066406 13.617188 13.101562 13.617188 13.277344 Z M 13.617188 13.277344 "/>
<path style=" stroke:none;fill-rule:nonzero;fill:rgb(0%,0%,0%);fill-opacity:1;" d="M 38.347656 13.496094 C 38.398438 13.585938 38.453125 13.664062 38.480469 13.664062 C 38.496094 13.664062 38.480469 13.585938 38.429688 13.496094 C 38.378906 13.402344 38.320312 13.328125 38.296875 13.328125 C 38.28125 13.328125 38.296875 13.402344 38.347656 13.496094 Z M 38.347656 13.496094 "/>
<path style=" stroke:none;fill-rule:nonzero;fill:rgb(0%,0%,0%);fill-opacity:1;" d="M 7.644531 14.917969 L 7.644531 16.09375 L 8.230469 16.09375 L 8.203125 14.917969 L 8.179688 13.746094 L 7.644531 13.746094 Z M 7.644531 14.917969 "/>
<path style=" stroke:none;fill-rule:nonzero;fill:rgb(0%,0%,0%);fill-opacity:1;" d="M 9.222656 13.90625 C 8.890625 14.105469 8.738281 14.535156 8.789062 15.136719 C 8.8125 15.464844 8.878906 15.648438 9.023438 15.800781 C 9.390625 16.195312 10.265625 16.269531 10.644531 15.941406 C 10.792969 15.808594 10.800781 15.816406 10.753906 16.21875 C 10.695312 16.789062 10.476562 16.964844 9.875 16.914062 C 9.609375 16.890625 9.339844 16.804688 9.199219 16.695312 C 8.988281 16.546875 8.949219 16.539062 8.90625 16.648438 C 8.789062 16.941406 8.855469 17.089844 9.140625 17.183594 C 9.53125 17.308594 10.375 17.316406 10.683594 17.183594 C 11.179688 16.980469 11.226562 16.789062 11.277344 15.1875 L 11.320312 13.746094 L 11.054688 13.746094 C 10.859375 13.746094 10.777344 13.789062 10.777344 13.878906 C 10.777344 13.996094 10.761719 13.996094 10.59375 13.878906 C 10.324219 13.6875 9.550781 13.703125 9.222656 13.90625 Z M 10.394531 14.164062 C 10.820312 14.324219 10.894531 15.355469 10.5 15.632812 C 10.25 15.808594 9.664062 15.800781 9.5 15.605469 C 9.207031 15.28125 9.222656 14.550781 9.53125 14.242188 C 9.707031 14.066406 10.058594 14.03125 10.394531 14.164062 Z M 10.394531 14.164062 "/>
<path style=" stroke:none;fill-rule:nonzero;fill:rgb(0%,0%,0%);fill-opacity:1;" d="M 11.988281 14.917969 L 11.988281 16.09375 L 12.574219 16.09375 L 12.546875 14.917969 L 12.523438 13.746094 L 11.988281 13.746094 Z M 11.988281 14.917969 "/>
<path style=" stroke:none;fill-rule:nonzero;fill:rgb(0%,0%,0%);fill-opacity:1;" d="M 15.621094 13.820312 C 15.414062 13.878906 15.296875 14.125 15.429688 14.257812 C 15.464844 14.292969 15.648438 14.273438 15.832031 14.207031 C 16.359375 14.023438 16.765625 14.046875 17 14.292969 C 17.25 14.535156 17.292969 14.886719 17.066406 14.792969 C 16.984375 14.761719 16.707031 14.710938 16.457031 14.695312 C 15.863281 14.644531 15.40625 14.820312 15.28125 15.144531 C 14.996094 15.902344 15.855469 16.394531 16.835938 16.050781 C 17.035156 15.976562 17.175781 15.960938 17.191406 16.007812 C 17.210938 16.058594 17.359375 16.09375 17.519531 16.09375 C 17.753906 16.09375 17.804688 16.066406 17.761719 15.960938 C 17.734375 15.882812 17.710938 15.488281 17.710938 15.070312 C 17.710938 14.324219 17.710938 14.316406 17.425781 14.03125 C 17.152344 13.753906 17.125 13.746094 16.492188 13.753906 C 16.125 13.761719 15.738281 13.789062 15.621094 13.820312 Z M 17.050781 15.179688 C 17.460938 15.398438 17.050781 15.757812 16.398438 15.757812 C 16 15.757812 15.707031 15.625 15.707031 15.429688 C 15.707031 15.3125 15.914062 15.105469 16.082031 15.0625 C 16.300781 15.003906 16.851562 15.070312 17.050781 15.179688 Z M 17.050781 15.179688 "/>
<path style=" stroke:none;fill-rule:nonzero;fill:rgb(0%,0%,0%);fill-opacity:1;" d="M 21.179688 13.8125 C 21.019531 13.871094 21.011719 13.949219 21.011719 14.988281 L 21.011719 16.09375 L 21.597656 16.09375 L 21.570312 15.296875 C 21.546875 14.542969 21.554688 14.492188 21.753906 14.292969 C 21.996094 14.046875 22.273438 14.023438 22.539062 14.214844 C 22.707031 14.332031 22.722656 14.410156 22.722656 15.222656 L 22.722656 16.09375 L 23.308594 16.09375 L 23.308594 15.261719 C 23.308594 14.457031 23.316406 14.425781 23.527344 14.257812 C 23.808594 14.03125 24.09375 14.03125 24.320312 14.257812 C 24.46875 14.410156 24.488281 14.507812 24.460938 15.261719 L 24.4375 16.09375 L 24.761719 16.09375 C 25.019531 16.09375 25.070312 16.066406 25.03125 15.960938 C 25.003906 15.882812 24.980469 15.472656 24.980469 15.027344 C 24.980469 14.265625 24.972656 14.222656 24.738281 13.988281 C 24.535156 13.789062 24.417969 13.746094 24.101562 13.746094 C 23.691406 13.746094 23.226562 13.9375 23.226562 14.105469 C 23.214844 14.175781 23.183594 14.15625 23.117188 14.074219 C 22.859375 13.730469 22.140625 13.628906 21.761719 13.878906 C 21.570312 14.007812 21.554688 14.007812 21.554688 13.878906 C 21.554688 13.738281 21.460938 13.722656 21.179688 13.8125 Z M 21.179688 13.8125 "/>
<path style=" stroke:none;fill-rule:nonzero;fill:rgb(0%,0%,0%);fill-opacity:1;" d="M 25.980469 13.820312 C 25.773438 13.878906 25.65625 14.125 25.789062 14.257812 C 25.824219 14.292969 26.007812 14.273438 26.191406 14.207031 C 26.71875 14.023438 27.125 14.046875 27.359375 14.292969 C 27.609375 14.535156 27.652344 14.886719 27.425781 14.792969 C 27.34375 14.761719 27.066406 14.710938 26.816406 14.695312 C 26.222656 14.644531 25.765625 14.820312 25.640625 15.144531 C 25.355469 15.902344 26.214844 16.394531 27.195312 16.050781 C 27.394531 15.976562 27.535156 15.960938 27.550781 16.007812 C 27.570312 16.058594 27.71875 16.09375 27.878906 16.09375 C 28.113281 16.09375 28.164062 16.066406 28.121094 15.960938 C 28.09375 15.882812 28.070312 15.488281 28.070312 15.070312 C 28.070312 14.324219 28.070312 14.316406 27.785156 14.03125 C 27.511719 13.753906 27.484375 13.746094 26.851562 13.753906 C 26.484375 13.761719 26.097656 13.789062 25.980469 13.820312 Z M 27.410156 15.179688 C 27.820312 15.398438 27.410156 15.757812 26.757812 15.757812 C 26.359375 15.757812 26.066406 15.625 26.066406 15.429688 C 26.066406 15.3125 26.273438 15.105469 26.441406 15.0625 C 26.660156 15.003906 27.210938 15.070312 27.410156 15.179688 Z M 27.410156 15.179688 "/>
<path style=" stroke:none;fill-rule:nonzero;fill:rgb(0%,0%,0%);fill-opacity:1;" d="M 28.78125 15.464844 L 28.78125 17.183594 L 29.367188 17.183594 L 29.339844 16.539062 C 29.316406 16.007812 29.332031 15.910156 29.425781 15.984375 C 29.785156 16.277344 30.628906 16.195312 30.996094 15.832031 C 31.4375 15.378906 31.421875 14.433594 30.953125 13.996094 C 30.710938 13.773438 29.992188 13.671875 29.582031 13.8125 C 29.425781 13.871094 29.324219 13.871094 29.324219 13.820312 C 29.324219 13.78125 29.199219 13.746094 29.054688 13.746094 L 28.78125 13.746094 Z M 30.511719 14.25 C 30.769531 14.449219 30.851562 14.835938 30.742188 15.261719 C 30.644531 15.640625 30.46875 15.757812 30.007812 15.757812 C 29.53125 15.757812 29.367188 15.539062 29.367188 14.902344 C 29.367188 14.476562 29.398438 14.375 29.566406 14.242188 C 29.816406 14.03125 30.25 14.039062 30.511719 14.25 Z M 30.511719 14.25 "/>
<path style=" stroke:none;fill-rule:nonzero;fill:rgb(0%,0%,0%);fill-opacity:1;" d="M 50.710938 14.835938 C 50.660156 14.929688 50.644531 15.003906 50.660156 15.003906 C 50.6875 15.003906 50.746094 14.929688 50.792969 14.835938 C 50.84375 14.742188 50.859375 14.667969 50.84375 14.667969 C 50.820312 14.667969 50.761719 14.742188 50.710938 14.835938 Z M 50.710938 14.835938 "/>
<path style=" stroke:none;fill-rule:nonzero;fill:rgb(0%,0%,0%);fill-opacity:1;" d="M 39.765625 15.792969 C 39.765625 15.808594 39.832031 15.875 39.917969 15.933594 C 40.042969 16.042969 40.050781 16.035156 39.941406 15.902344 C 39.832031 15.765625 39.765625 15.722656 39.765625 15.792969 Z M 39.765625 15.792969 "/>
<path style=" stroke:none;fill-rule:nonzero;fill:rgb(0%,0%,0%);fill-opacity:1;" d="M 40.015625 16.125 C 40.015625 16.144531 40.085938 16.210938 40.167969 16.269531 C 40.292969 16.378906 40.300781 16.371094 40.191406 16.234375 C 40.085938 16.101562 40.015625 16.058594 40.015625 16.125 Z M 40.015625 16.125 "/>
<path style=" stroke:none;fill-rule:nonzero;fill:rgb(0%,0%,0%);fill-opacity:1;" d="M 49.785156 16.234375 C 49.675781 16.371094 49.683594 16.378906 49.816406 16.269531 C 49.949219 16.160156 49.992188 16.09375 49.925781 16.09375 C 49.910156 16.09375 49.84375 16.160156 49.785156 16.234375 Z M 49.785156 16.234375 "/>
<path style=" stroke:none;fill-rule:nonzero;fill:rgb(0%,0%,0%);fill-opacity:1;" d="M 40.269531 16.460938 C 40.269531 16.480469 40.335938 16.546875 40.417969 16.605469 C 40.542969 16.714844 40.550781 16.707031 40.445312 16.570312 C 40.335938 16.4375 40.269531 16.394531 40.269531 16.460938 Z M 40.269531 16.460938 "/>
<path style=" stroke:none;fill-rule:nonzero;fill:rgb(0%,0%,0%);fill-opacity:1;" d="M 49.53125 16.570312 C 49.425781 16.707031 49.433594 16.714844 49.566406 16.605469 C 49.699219 16.496094 49.742188 16.429688 49.675781 16.429688 C 49.660156 16.429688 49.589844 16.496094 49.53125 16.570312 Z M 49.53125 16.570312 "/>
<path style=" stroke:none;fill-rule:nonzero;fill:rgb(0%,0%,0%);fill-opacity:1;" d="M 40.769531 17.097656 C 40.910156 17.285156 41.078125 17.460938 41.128906 17.492188 C 41.179688 17.527344 41.078125 17.375 40.902344 17.15625 C 40.726562 16.941406 40.570312 16.765625 40.542969 16.765625 C 40.519531 16.765625 40.628906 16.914062 40.769531 17.097656 Z M 40.769531 17.097656 "/>
<path style=" stroke:none;fill-rule:nonzero;fill:rgb(0%,0%,0%);fill-opacity:1;" d="M 49.28125 16.90625 C 49.171875 17.039062 49.183594 17.050781 49.316406 16.941406 C 49.449219 16.832031 49.492188 16.765625 49.425781 16.765625 C 49.40625 16.765625 49.339844 16.832031 49.28125 16.90625 Z M 49.28125 16.90625 "/>
<path style=" stroke:none;fill-rule:nonzero;fill:rgb(0%,0%,0%);fill-opacity:1;" d="M 48.988281 17.285156 L 48.832031 17.476562 L 49.023438 17.316406 C 49.125 17.226562 49.207031 17.140625 49.207031 17.125 C 49.207031 17.058594 49.140625 17.109375 48.988281 17.285156 Z M 48.988281 17.285156 "/>
<path style=" stroke:none;fill-rule:nonzero;fill:rgb(0%,0%,0%);fill-opacity:1;" d="M 48.320312 18.078125 C 48.046875 18.390625 47.871094 18.617188 47.921875 18.582031 C 48.046875 18.507812 48.90625 17.519531 48.847656 17.519531 C 48.832031 17.519531 48.589844 17.769531 48.320312 18.078125 Z M 48.320312 18.078125 "/>
<path style=" stroke:none;fill-rule:nonzero;fill:rgb(0%,0%,0%);fill-opacity:1;" d="M 41.355469 17.8125 C 41.460938 17.929688 41.570312 18.019531 41.589844 18.019531 C 41.613281 18.019531 41.546875 17.929688 41.4375 17.8125 C 41.328125 17.695312 41.21875 17.601562 41.203125 17.601562 C 41.179688 17.601562 41.246094 17.695312 41.355469 17.8125 Z M 41.355469 17.8125 "/>
<path style=" stroke:none;fill-rule:nonzero;fill:rgb(0%,0%,0%);fill-opacity:1;" d="M 16.792969 17.878906 C 16.875 17.972656 20.308594 18.960938 22.089844 19.402344 C 25.136719 20.160156 27.285156 20.503906 29.492188 20.59375 C 30.835938 20.644531 32.398438 20.535156 33.285156 20.335938 C 33.828125 20.207031 33.875 20.167969 33.953125 19.847656 C 34.003906 19.628906 33.992188 19.621094 33.808594 19.6875 C 33.441406 19.832031 31.546875 20.109375 30.578125 20.160156 C 28.78125 20.257812 26.007812 19.972656 23.148438 19.394531 C 22.015625 19.167969 18.296875 18.253906 16.960938 17.886719 C 16.84375 17.851562 16.765625 17.851562 16.792969 17.878906 Z M 16.792969 17.878906 "/>
<path style=" stroke:none;fill-rule:nonzero;fill:rgb(0%,0%,0%);fill-opacity:1;" d="M 41.605469 18.128906 C 41.605469 18.148438 41.730469 18.265625 41.878906 18.40625 L 42.148438 18.648438 L 41.90625 18.375 C 41.671875 18.121094 41.605469 18.0625 41.605469 18.128906 Z M 41.605469 18.128906 "/>
<path style=" stroke:none;fill-rule:nonzero;fill:rgb(0%,0%,0%);fill-opacity:1;" d="M 42.441406 19.042969 C 42.78125 19.421875 42.859375 19.488281 42.859375 19.421875 C 42.859375 19.402344 42.683594 19.226562 42.464844 19.027344 L 42.0625 18.648438 Z M 42.441406 19.042969 "/>
<path style=" stroke:none;fill-rule:nonzero;fill:rgb(0%,0%,0%);fill-opacity:1;" d="M 46.449219 20.148438 C 45.691406 20.953125 45.039062 21.617188 44.996094 21.617188 C 44.953125 21.625 44.453125 21.148438 43.886719 20.550781 L 42.839844 19.488281 L 43.878906 20.59375 C 44.4375 21.207031 44.929688 21.710938 44.964844 21.710938 C 44.996094 21.710938 45.457031 21.265625 45.972656 20.726562 C 47.285156 19.355469 47.902344 18.691406 47.863281 18.691406 C 47.84375 18.691406 47.210938 19.34375 46.449219 20.148438 Z M 46.449219 20.148438 "/>
</g>
</svg>
