<?xml version="1.0" standalone="no"?>
<!DOCTYPE svg PUBLIC "-//W3C//DTD SVG 20010904//EN"
 "http://www.w3.org/TR/2001/REC-SVG-20010904/DTD/svg10.dtd">
<svg version="1.0" xmlns="http://www.w3.org/2000/svg"
 width="260.000000pt" height="120.000000pt" viewBox="0 0 300.000000 130.000000"
 preserveAspectRatio="xMidYMid meet">
<metadata>
Created by potrace 1.10, written by Peter Selinger 2001-2011
</metadata>
<g transform="translate(0.000000,130.000000) scale(0.100000,-0.100000)"
fill="#005EFF" stroke="none">
<path d="M2565 1289 c39 -5 86 -14 105 -20 215 -68 345 -278 311 -501 -30
-194 -127 -365 -334 -583 l-103 -108 -103 115 c-57 64 -130 151 -163 195 -69
91 -152 255 -167 331 -52 256 85 487 330 557 l54 15 -45 -5 c-107 -13 -244
-113 -302 -221 -55 -102 -71 -241 -43 -363 18 -74 74 -191 133 -277 53 -78
186 -236 257 -304 l57 -55 79 85 c230 245 329 413 360 609 19 129 -7 244 -80
348 -22 32 -57 71 -77 87 -81 64 -204 108 -297 105 -33 -1 -27 -3 28 -10z"/>
<path d="M2429 1212 c-88 -30 -161 -86 -219 -171 l-23 -33 29 6 c28 6 152 -6
184 -18 11 -3 23 12 43 53 35 75 64 111 87 111 31 0 32 -17 6 -62 -33 -57 -73
-179 -81 -252 l-8 -58 59 47 c97 80 278 155 371 155 l34 0 -23 41 c-36 63
-129 144 -195 169 -80 31 -191 36 -264 12z m51 -36 c0 -8 -5 -18 -10 -21 -6
-4 -26 -31 -46 -62 l-35 -55 -52 6 c-28 4 -55 10 -60 13 -21 13 80 92 152 118
47 18 51 18 51 1z m229 -26 c57 -28 121 -89 121 -114 0 -15 -122 -51 -145 -42
-8 3 -15 12 -15 20 0 19 -57 66 -81 66 -22 0 -23 1 -7 35 9 19 9 28 0 37 -7 7
-12 18 -12 26 0 22 69 8 139 -28z m-91 -116 c42 -29 19 -94 -33 -94 -33 0 -60
41 -46 69 10 18 37 40 51 41 3 0 16 -7 28 -16z m-78 -108 c0 -16 -14 -36 -26
-36 -14 0 -19 22 -7 33 7 8 33 10 33 3z"/>
<path d="M178 1093 l-178 -3 0 -35 0 -35 75 0 75 0 0 -170 0 -170 33 0 32 0
-3 170 -3 170 75 0 76 0 0 40 c0 22 -1 39 -2 38 -2 -1 -83 -4 -180 -5z"/>
<path d="M1680 888 l0 -208 30 0 30 0 0 208 0 207 -30 0 -30 0 0 -207z"/>
<path d="M2003 1093 c-37 -4 -48 -11 -110 -83 -53 -61 -74 -79 -95 -79 -26 -1
-28 -4 -28 -41 0 -36 3 -40 24 -40 18 0 44 -22 98 -84 73 -84 73 -84 122 -85
l50 -1 -30 33 c-16 17 -58 62 -92 99 -34 36 -62 71 -62 76 0 11 145 171 168
185 13 9 17 28 5 25 -5 -1 -27 -3 -50 -5z"/>
<path d="M417 1083 c-4 -3 -7 -96 -7 -205 l0 -198 35 0 36 0 -3 170 -3 170
118 0 117 0 0 -49 c0 -68 -19 -81 -125 -81 l-80 0 0 -35 c0 -31 3 -35 25 -35
18 0 46 -20 95 -70 68 -68 71 -70 120 -70 l50 0 -67 66 c-38 36 -68 68 -68 70
0 2 9 4 19 4 29 0 78 46 91 86 17 49 8 138 -15 164 -17 18 -30 20 -175 20 -86
0 -160 -3 -163 -7z m233 -243 c0 -4 -7 -13 -15 -20 -13 -10 -19 -9 -36 6 -19
17 -19 19 -2 25 20 7 53 0 53 -11z"/>
<path d="M935 1071 c-77 -47 -94 -95 -95 -263 l0 -128 35 0 36 0 -3 53 -3 52
118 3 117 3 0 -56 0 -55 35 0 35 0 0 189 c0 104 -3 196 -6 205 -10 25 -228 23
-269 -3z m205 -131 l0 -80 -121 0 -122 0 7 43 c13 86 56 117 164 117 l72 0 0
-80z"/>
<path d="M1309 1064 c-23 -24 -24 -34 -27 -161 -5 -211 6 -223 208 -223 l120
0 0 40 0 40 -129 0 c-152 0 -142 -10 -140 130 1 141 -11 130 142 130 l132 0 0
35 0 35 -141 0 c-138 0 -141 0 -165 -26z"/>
<path d="M2155 879 c-13 -110 36 -248 112 -320 20 -19 33 -29 30 -23 -3 5 5
58 17 118 l24 107 -88 87 -89 87 -6 -56z m104 -81 c27 -25 41 -46 41 -62 0
-39 -21 -126 -30 -126 -12 0 -47 50 -60 86 -17 44 -30 122 -24 139 7 18 18 12
73 -37z"/>
<path d="M2269 923 c5 -10 27 -35 49 -57 l41 -39 11 43 c6 23 9 44 6 47 -6 6
-76 22 -99 23 -14 0 -16 -4 -8 -17z"/>
<path d="M2868 855 c-68 -73 -105 -96 -118 -75 -14 23 -14 24 40 66 27 21 49
42 50 47 0 10 -44 -1 -101 -25 l-47 -19 49 -95 c26 -52 53 -119 60 -150 l12
-54 23 21 c54 51 104 186 104 282 0 68 -10 68 -72 2z m23 -122 c-16 -57 -50
-108 -63 -95 -12 12 -38 79 -38 99 0 7 24 30 53 52 l52 40 3 -29 c2 -16 -2
-46 -7 -67z"/>
<path d="M2580 761 l-45 -39 25 -20 c25 -21 132 -82 144 -82 3 0 6 8 6 19 0
21 -68 161 -78 161 -4 0 -27 -18 -52 -39z m60 -30 c16 -32 12 -43 -12 -36 -35
11 -43 22 -28 40 17 20 27 19 40 -4z"/>
<path d="M2421 579 c-34 -50 -61 -92 -59 -94 1 -1 24 -10 49 -18 71 -24 141
-30 198 -18 59 12 151 50 151 61 0 4 -17 12 -37 18 -48 14 -182 93 -207 121
-11 11 -22 21 -26 21 -3 0 -34 -41 -69 -91z m184 -18 c44 -26 79 -52 77 -57
-3 -12 -88 -34 -134 -34 -61 0 -138 20 -138 36 0 8 18 39 40 70 34 46 44 53
58 43 9 -6 53 -32 97 -58z"/>
<path d="M1055 582 c-5 -4 -10 -49 -10 -100 0 -81 2 -92 18 -92 15 0 17 11 17
100 0 96 -3 108 -25 92z"/>
<path d="M225 476 l0 -86 63 0 c53 0 67 4 87 25 30 29 33 83 7 115 -15 18 -31
23 -88 27 l-69 5 0 -86z m133 42 c7 -7 12 -27 12 -44 0 -40 -30 -64 -77 -64
l-33 0 0 60 0 60 43 0 c24 0 48 -5 55 -12z"/>
<path d="M770 545 c0 -7 -8 -19 -17 -25 -13 -8 -14 -13 -5 -16 6 -3 12 -23 12
-44 0 -21 3 -45 6 -54 8 -20 74 -22 74 -2 0 9 -8 12 -25 8 -24 -4 -25 -2 -25
42 0 42 2 46 25 46 14 0 25 5 25 10 0 6 -11 10 -25 10 -18 0 -25 5 -25 20 0
11 -4 20 -10 20 -5 0 -10 -7 -10 -15z"/>
<path d="M435 455 c0 -51 3 -65 15 -65 12 0 14 12 12 65 -5 89 -27 89 -27 0z"/>
<path d="M516 504 c-19 -19 -21 -74 -3 -98 10 -14 23 -17 55 -14 33 3 42 0 42
-12 0 -39 -48 -52 -88 -24 -20 14 -22 14 -22 -4 0 -23 18 -32 66 -32 57 0 74
26 74 119 l0 78 -54 2 c-38 0 -60 -4 -70 -15z m89 -49 c0 -38 -2 -40 -32 -43
-40 -4 -58 23 -43 63 8 22 15 26 42 23 31 -3 33 -5 33 -43z"/>
<path d="M680 455 c0 -51 3 -65 15 -65 12 0 15 14 15 65 0 51 -3 65 -15 65
-12 0 -15 -14 -15 -65z"/>
<path d="M877 513 c-16 -15 -4 -20 37 -16 37 5 46 2 55 -16 11 -20 10 -20 -32
-15 -33 5 -47 2 -60 -11 -40 -39 -11 -65 69 -63 l59 1 -4 51 c-1 28 -8 57 -13
64 -11 12 -100 17 -111 5z m92 -76 c15 -19 4 -27 -41 -27 -36 0 -50 15 -31 33
11 12 60 7 72 -6z"/>
<path d="M1190 454 c0 -50 3 -64 15 -64 11 0 15 11 15 43 0 53 11 70 41 65 21
-3 24 -9 27 -55 2 -37 7 -53 17 -53 10 0 15 16 17 53 3 46 6 52 27 55 30 5 41
-12 41 -65 0 -33 4 -43 16 -43 14 0 16 9 12 50 -3 27 -11 56 -18 65 -14 17
-66 20 -75 5 -5 -8 -11 -8 -19 -1 -7 6 -36 10 -64 10 l-52 -2 0 -63z"/>
<path d="M1460 507 c0 -9 15 -13 47 -13 37 1 48 -3 51 -16 3 -13 -3 -15 -35
-11 -51 6 -78 -14 -69 -51 6 -25 9 -26 71 -25 l65 2 0 48 c0 30 -6 53 -16 63
-20 20 -114 22 -114 3z m95 -77 c0 -10 -12 -16 -37 -18 -37 -3 -51 12 -31 32
13 13 68 2 68 -14z"/>
<path d="M1630 424 c0 -77 3 -94 15 -94 10 0 15 10 15 33 0 32 1 33 34 29 53
-6 76 12 76 58 0 54 -20 70 -86 69 l-54 -2 0 -93z m105 31 c0 -38 -2 -40 -32
-43 -35 -4 -50 20 -39 64 6 21 12 25 39 22 30 -3 32 -5 32 -43z"/>
<path d="M2154 318 c-36 -40 -137 -98 -218 -125 -75 -25 -95 -27 -251 -27
-125 -1 -196 4 -270 18 -134 24 -327 70 -454 107 -57 17 -105 28 -107 26 -5
-5 276 -88 411 -121 170 -42 291 -59 440 -59 156 -1 228 13 331 63 67 33 154
104 154 126 0 20 -14 17 -36 -8z"/>
<path d="M2211 214 c-59 -46 -152 -90 -248 -116 -63 -17 -106 -21 -223 -21
-155 0 -255 16 -436 69 -132 39 -143 38 -24 -1 168 -57 277 -76 450 -82 134
-4 167 -2 242 16 124 29 298 122 298 158 0 20 -10 16 -59 -23z"/>
<path d="M2286 130 c-140 -94 -357 -132 -571 -101 -140 21 -142 21 -85 6 154
-40 390 -36 527 10 89 30 193 90 193 111 0 17 6 20 -64 -26z"/>
</g>
</svg>
